HIERARCHY
ROOT Hips
{
	OFFSET 0.000000 88.474243 0.000000
	CHANNELS 6 Xposition Yposition Zposition Zrotation Yrotation Xrotation 
	JOINT Hips_Spine
	{
		OFFSET 0.000000 0.000000 0.000000
		CHANNELS 3 Zrotation Yrotation Xrotation
		JOINT Spine
		{
			OFFSET 0.005100 8.711998 -0.691000
			CHANNELS 3 Zrotation Yrotation Xrotation
			JOINT Spine1
			{
				OFFSET -0.009200 8.660301 -1.275000
				CHANNELS 3 Zrotation Yrotation Xrotation
				JOINT Spine2
				{
					OFFSET 0.006300 9.852501 -1.857000
					CHANNELS 3 Zrotation Yrotation Xrotation
					JOINT Spine2_Neck
					{
						OFFSET 0.000000 0.000000 0.000000
						CHANNELS 3 Zrotation Yrotation Xrotation
						JOINT Neck
						{
							OFFSET 0.016300 11.420799 -0.263300
							CHANNELS 3 Zrotation Yrotation Xrotation
							End Site #name: Head
							{
								OFFSET -0.019200 9.262405 2.362500
							}
						}
					}
					JOINT Spine2_LeftShoulder
					{
						OFFSET 0.000000 0.000000 0.000000
						CHANNELS 3 Zrotation Yrotation Xrotation
						JOINT LeftShoulder
						{
							OFFSET 5.616900 6.732201 -0.345700
							CHANNELS 3 Zrotation Yrotation Xrotation
							JOINT LeftArm
							{
								OFFSET 10.664888 -0.183372 -2.440700
								CHANNELS 3 Zrotation Yrotation Xrotation
								JOINT LeftForeArm
								{
									OFFSET 27.459126 0.000000 0.000000
									CHANNELS 3 Zrotation Yrotation Xrotation
									End Site #name: LeftHand
									{
										OFFSET 21.306858 0.000000 0.000000
									}
								}
							}
						}
					}
					JOINT Spine2_RightShoulder
					{
						OFFSET 0.000000 0.000000 0.000000
						CHANNELS 3 Zrotation Yrotation Xrotation
						JOINT RightShoulder
						{
							OFFSET -5.580300 6.737503 -0.344400
							CHANNELS 3 Zrotation Yrotation Xrotation
							JOINT RightArm
							{
								OFFSET -10.679335 -0.188484 -2.383900
								CHANNELS 3 Zrotation Yrotation Xrotation
								JOINT RightForeArm
								{
									OFFSET -27.503529 0.000000 0.000000
									CHANNELS 3 Zrotation Yrotation Xrotation
									End Site #name: RightHand
									{
										OFFSET -21.306808 0.000000 0.000000
									}
								}
							}
						}
					}
				}
			}
		}
	}
	JOINT Hips_LeftUpLeg
	{
		OFFSET 0.000000 0.000000 0.000000
		CHANNELS 3 Zrotation Yrotation Xrotation
		JOINT LeftUpLeg
		{
			OFFSET 6.857700 -6.739601 0.312100
			CHANNELS 3 Zrotation Yrotation Xrotation
			JOINT LeftLeg
			{
				OFFSET -0.367590 -34.731552 -4.572400
				CHANNELS 3 Zrotation Yrotation Xrotation
				End Site #name: LeftFoot
				{
					OFFSET 0.367590 -34.656704 -6.067400
				}
			}
		}
	}
	JOINT Hips_RightUpLeg
	{
		OFFSET 0.000000 0.000000 0.000000
		CHANNELS 3 Zrotation Yrotation Xrotation
		JOINT RightUpLeg
		{
			OFFSET -6.876100 -6.733299 0.301000
			CHANNELS 3 Zrotation Yrotation Xrotation
			JOINT RightLeg
			{
				OFFSET 0.347353 -34.795158 -4.515900
				CHANNELS 3 Zrotation Yrotation Xrotation
				End Site #name: RightFoot
				{
					OFFSET -0.347353 -34.589367 -6.070300
				}
			}
		}
	}
}
MOTION
Frames: 6
Frame Time: 0.041667
-2.802162 -1.354348 3.989948 -0.864842 18.446981 -6.812330 0.000000 -0.000000 0.000000 8.480190 -1.350070 -2.561177 4.259543 -1.516579 -0.319189 0.000000 0.000000 0.000000 3.728384 -1.223550 -0.554221 2.542309 -1.738615 1.090625 3.774059 -1.806657 -0.929742 -20.815567 3.113976 2.477038 -58.719276 4.227756 30.660906 -0.755142 -26.778155 1.997993 3.458888 -1.346714 -0.111446 16.190968 8.949164 2.527392 55.590632 9.257742 6.889593 0.709248 38.979078 -0.490129 -0.000000 -0.000000 -0.000000 -1.689930 15.064971 -5.502684 3.646289 10.413518 24.598769 0.000000 -0.000000 0.000000 0.989489 -3.109759 -21.967031 0.367063 -7.264563 19.906121 
-3.219334 -1.517708 4.592669 -0.998674 18.266444 -6.676860 0.000000 -0.000000 0.000000 8.824041 -1.353981 -2.561926 4.404804 -1.529524 -0.287843 0.000000 0.000000 0.000000 3.866719 -1.213422 -0.491193 2.598385 -1.817104 1.441718 3.936602 -1.818899 -0.820034 -20.565999 3.136380 2.460655 -58.983694 4.513700 30.378129 -0.779631 -27.723850 1.969082 3.595309 -1.349299 -0.083345 16.272861 9.001216 2.571053 55.373362 8.993858 6.851708 0.704188 39.019877 -0.499988 -0.000000 -0.000000 -0.000000 -0.538233 14.982149 -5.114262 2.365192 8.277783 24.518241 0.000000 -0.000000 0.000000 1.686916 -2.539042 -22.392324 0.475300 -7.341014 20.618392 
-3.582171 -1.661131 5.191120 -1.026197 17.781967 -6.556806 0.000000 -0.000000 0.000000 8.963930 -1.411390 -2.308254 4.523019 -1.542441 -0.214883 0.000000 0.000000 0.000000 3.980928 -1.199524 -0.400878 2.629212 -1.871167 1.777262 4.075443 -1.815920 -0.668260 -20.348480 3.146160 2.457755 -59.187837 4.747383 30.140645 -0.800792 -28.520274 1.963822 3.719198 -1.348346 -0.042907 16.400801 9.010753 2.624094 55.142562 8.783048 6.808496 0.700518 39.113259 -0.507936 -0.000000 -0.000000 -0.000000 0.649979 14.650917 -4.688950 1.090142 5.998651 24.759484 0.000000 -0.000000 0.000000 2.275798 -1.944503 -22.659100 0.558882 -7.452372 21.297250 
-3.876399 -1.783121 5.782501 -0.958030 17.323748 -6.475630 0.000000 -0.000000 0.000000 9.100745 -1.534249 -2.010148 4.617478 -1.554129 -0.104140 0.000000 0.000000 0.000000 4.081195 -1.180683 -0.292348 2.645141 -1.917298 2.091819 4.197512 -1.800537 -0.491492 -20.174530 3.151742 2.444782 -59.310250 4.879764 29.938591 -0.817549 -29.190345 1.961972 3.824223 -1.340447 0.016737 16.586259 9.000924 2.690921 54.908306 8.638934 6.764494 0.699084 39.296084 -0.512696 -0.000000 -0.000000 -0.000000 1.965046 14.116941 -4.403915 0.186801 3.708868 27.483313 0.000000 -0.000000 0.000000 2.742462 -1.434655 -22.813705 0.637654 -7.579760 21.972100 
-4.075238 -1.902631 6.356770 -0.843173 16.859289 -6.400931 0.000000 -0.000000 0.000000 9.247372 -1.647117 -1.649110 4.699099 -1.561530 0.024484 0.000000 0.000000 0.000000 4.169285 -1.169287 -0.186110 2.631718 -1.956005 2.355069 4.304711 -1.784523 -0.310991 -20.040583 3.165277 2.429165 -59.386281 4.935023 29.763023 -0.832588 -29.741692 1.964523 3.913890 -1.334944 0.092998 16.791389 8.981572 2.762675 54.684139 8.559706 6.719204 0.698891 39.577771 -0.516308 -0.000000 -0.000000 -0.000000 3.287288 13.432699 -4.447140 -0.788808 2.118932 31.984309 0.000000 -0.000000 0.000000 3.099949 -1.058809 -22.852624 0.717092 -7.712477 22.634427 
-4.179190 -2.011882 6.905868 -0.692486 16.310422 -6.285700 0.000000 -0.000000 0.000000 9.338793 -1.832429 -1.158398 4.769157 -1.570511 0.147954 0.000000 0.000000 0.000000 4.238766 -1.163801 -0.089878 2.627656 -1.949451 2.518705 4.399089 -1.775106 -0.116326 -19.949049 3.177951 2.402565 -59.429272 4.917708 29.623075 -0.846595 -30.188761 1.975347 3.987318 -1.335967 0.207242 17.000182 8.958205 2.825674 54.471892 8.585945 6.667340 0.699874 39.945894 -0.516799 -0.000000 -0.000000 -0.000000 4.768918 12.419893 -4.814310 -1.286563 1.389321 37.451728 0.000000 -0.000000 0.000000 3.329420 -0.763738 -22.777883 0.806574 -7.804271 23.231519 
